<?xml version="1.0" encoding="UTF-8"?>
<svg id="_Слой_1" data-name="Слой 1" xmlns="http://www.w3.org/2000/svg" viewBox="0 0 28 32">
  <defs>
    <style>
      .cls-1 {
        fill: none;
        stroke: #fff;
        stroke-linecap: round;
        stroke-linejoin: round;
        stroke-width: 2px;
      }
    </style>
  </defs>
  <g id="Page-1">
    <g id="file">
      <g>
        <path id="Stroke-1" class="cls-1" d="M2,1s-1,0-1,1v28s0,1,1,1h24s1,0,1-1V11s0-1-1-2l-7-7c-1-1-2-1-2-1H2Z"/>
        <path id="Stroke-3" class="cls-1" d="M17,1v9s0,1,1,1h5"/>
      </g>
    </g>
  </g>
  <path class="cls-1" d="M24.1,18.7v8.3c0,.5-.4.9-.9.9h-10.3c-.5,0-.9-.4-.9-.9v-11.2c0-.5.4-.9.9-.9h7"/>
  <line class="cls-1" x1="19.8" y1="14.9" x2="24.1" y2="18.7"/>
  <line class="cls-1" x1="15.1" y1="21.4" x2="21.1" y2="21.4"/>
  <line class="cls-1" x1="15.1" y1="24.5" x2="21.1" y2="24.5"/>
  <rect class="cls-1" x="15.3" y="14.9" width="2.8" height="1.6"/>
</svg>